<svg width="21" height="18" viewBox="0 0 21 18" fill="none" xmlns="http://www.w3.org/2000/svg">
<path d="M1.07187 4.49999C0.829004 4.22806 0.655854 3.90118 0.567329 3.54749C0.478804 3.19381 0.477556 2.8239 0.563693 2.46962C0.64983 2.11535 0.820771 1.78731 1.0618 1.51375C1.30283 1.24019 1.60673 1.0293 1.94734 0.89923C2.28795 0.769164 2.65507 0.723819 3.01709 0.767099C3.37911 0.810379 3.72519 0.940987 4.02554 1.14768C4.32589 1.35437 4.57151 1.63096 4.74126 1.95363C4.91101 2.2763 4.9998 2.63539 5 2.99999V15C5.00019 15.3646 5.08899 15.7237 5.25874 16.0463C5.42849 16.369 5.67411 16.6456 5.97446 16.8523C6.27481 17.059 6.62089 17.1896 6.98291 17.2329C7.34493 17.2762 7.71205 17.2308 8.05266 17.1007C8.39327 16.9707 8.69717 16.7598 8.9382 16.4862C9.17923 16.2127 9.35017 15.8846 9.43631 15.5304C9.52244 15.1761 9.5212 14.8062 9.43267 14.4525C9.34415 14.0988 9.171 13.7719 8.92813 13.5H19.4281C19.7177 13.8238 19.9074 14.2245 19.9743 14.6538C20.0411 15.0831 19.9823 15.5225 19.8048 15.919C19.6274 16.3156 19.3389 16.6523 18.9743 16.8884C18.6096 17.1246 18.1844 17.2502 17.75 17.25H7.25" stroke="#E54594" stroke-linecap="round" stroke-linejoin="round"/>
</svg>
